<?xml version="1.0" encoding="UTF-8" standalone="no"?>
<!DOCTYPE svg PUBLIC "-//W3C//DTD SVG 1.1//EN" "http://www.w3.org/Graphics/SVG/1.1/DTD/svg11.dtd">
<svg version="1.1" xmlns="http://www.w3.org/2000/svg" xmlns:xlink="http://www.w3.org/1999/xlink" preserveAspectRatio="xMidYMid meet" viewBox="0 0 640 640" width="640" height="640"><defs><path d="M218.02 213.76C218.02 240.54 201.6 262.28 181.39 262.28C161.17 262.28 144.75 240.54 144.75 213.76C144.75 186.99 161.17 165.25 181.39 165.25C201.6 165.25 218.02 186.99 218.02 213.76Z" id="nZLBXFbWd"></path><path d="M269.5 195.94L215.05 213.76" id="a4IWZTpWk"></path><path d="" id="f52plllK9v"></path><path d="M236.83 142.48L209.11 182.08" id="b3AdOR339C"></path><path d="M128.02 139.5L155.74 179.11" id="albfz2539"></path><path d="M90.3 193.07L144.75 210.89" id="a3NFvRrmRb"></path><path d="M209.6 244.46L264.06 262.28" id="j2GlRk5AI7"></path><path d="M95.84 262.28L150.3 244.46" id="b2G6pRyM14"></path><path d="M199.21 148.91C199.21 157.93 191 165.25 180.89 165.25C170.78 165.25 162.57 157.93 162.57 148.91C162.57 139.89 170.78 132.57 180.89 132.57C191 132.57 199.21 139.89 199.21 148.91Z" id="b1I4NqkJb"></path><path d="M186.34 237.03C186.34 241.13 183.45 244.46 179.9 244.46C176.35 244.46 173.47 241.13 173.47 237.03C173.47 232.93 176.35 229.6 179.9 229.6C183.45 229.6 186.34 232.93 186.34 237.03Z" id="auGdApX4M"></path><path d="M173.47 197.43C173.47 201.52 170.58 204.85 167.03 204.85C163.48 204.85 160.59 201.52 160.59 197.43C160.59 193.33 163.48 190 167.03 190C170.58 190 173.47 193.33 173.47 197.43Z" id="bWwcfw2af"></path><path d="M205.64 210.89C205.64 214.99 202.76 218.32 199.21 218.32C195.66 218.32 192.77 214.99 192.77 210.89C192.77 206.79 195.66 203.47 199.21 203.47C202.76 203.47 205.64 206.79 205.64 210.89Z" id="a1lPNMH7jW"></path></defs><g><g><g><g><use xlink:href="#nZLBXFbWd" opacity="1" fill-opacity="0" stroke="#0b0b0b" stroke-width="8" stroke-opacity="1"></use></g></g><g><g><use xlink:href="#a4IWZTpWk" opacity="1" fill-opacity="0" stroke="#0b0b0b" stroke-width="7" stroke-opacity="1"></use></g></g><g><g><use xlink:href="#f52plllK9v" opacity="1" fill-opacity="0" stroke="#0b0b0b" stroke-width="3" stroke-opacity="1"></use></g></g><g><g><use xlink:href="#b3AdOR339C" opacity="1" fill-opacity="0" stroke="#0b0b0b" stroke-width="8" stroke-opacity="1"></use></g></g><g><g><use xlink:href="#albfz2539" opacity="1" fill-opacity="0" stroke="#0b0b0b" stroke-width="8" stroke-opacity="1"></use></g></g><g><g><use xlink:href="#a3NFvRrmRb" opacity="1" fill-opacity="0" stroke="#0b0b0b" stroke-width="7" stroke-opacity="1"></use></g></g><g><g><use xlink:href="#j2GlRk5AI7" opacity="1" fill-opacity="0" stroke="#0b0b0b" stroke-width="7" stroke-opacity="1"></use></g></g><g><g><use xlink:href="#b2G6pRyM14" opacity="1" fill-opacity="0" stroke="#0b0b0b" stroke-width="7" stroke-opacity="1"></use></g></g><g><g><use xlink:href="#b1I4NqkJb" opacity="1" fill-opacity="0" stroke="#040404" stroke-width="8" stroke-opacity="1"></use></g></g><g><use xlink:href="#auGdApX4M" opacity="1" fill="#000000" fill-opacity="1"></use></g><g><use xlink:href="#bWwcfw2af" opacity="1" fill="#000000" fill-opacity="1"></use></g><g><use xlink:href="#a1lPNMH7jW" opacity="1" fill="#000000" fill-opacity="1"></use></g></g></g></svg>