<?xml version="1.0" encoding="UTF-8" standalone="no"?>
<!DOCTYPE svg PUBLIC "-//W3C//DTD SVG 1.1//EN" "http://www.w3.org/Graphics/SVG/1.1/DTD/svg11.dtd">
<svg version="1.1" xmlns="http://www.w3.org/2000/svg" xmlns:xlink="http://www.w3.org/1999/xlink" preserveAspectRatio="xMidYMid meet" viewBox="229.66883909547485 152.94158380681807 120.08441558441561 125.2792207792208" width="115.58" height="120.78"><defs><path d="M346.75 214.83C346.75 248.16 320.86 275.22 288.96 275.22C257.06 275.22 231.17 248.16 231.17 214.83C231.17 181.5 257.06 154.44 288.96 154.44C320.86 154.44 346.75 181.5 346.75 214.83Z" id="c3y8031pJd"></path><path d="M296.03 154.89L298.33 155.23L300.6 155.67L302.84 156.2L305.05 156.82L307.22 157.52L309.35 158.31L311.45 159.19L313.5 160.15L315.51 161.19L317.48 162.3L319.39 163.49L321.26 164.76L323.08 166.1L324.85 167.51L326.56 168.99L328.22 170.53L329.82 172.14L331.36 173.81L332.83 175.54L334.25 177.33L335.6 179.18L336.88 181.08L338.09 183.03L339.23 185.04L340.3 187.09L341.29 189.19L342.21 191.33L343.05 193.52L343.8 195.75L344.48 198.02L345.07 200.33L345.58 202.67L346 205.04L346.32 207.45L346.56 209.88L346.71 212.34L346.75 214.83L346.71 217.32L346.56 219.78L346.32 222.22L346 224.62L345.58 227L345.07 229.34L344.48 231.64L343.8 233.91L343.05 236.14L342.21 238.33L341.29 240.47L340.3 242.57L339.23 244.63L338.09 246.63L336.88 248.59L335.6 250.49L334.25 252.33L332.83 254.12L331.36 255.85L329.82 257.52L328.22 259.13L326.56 260.68L324.85 262.15L323.08 263.56L321.26 264.9L319.39 266.17L317.48 267.36L315.51 268.48L313.5 269.51L311.45 270.47L309.35 271.35L307.22 272.14L305.05 272.85L302.84 273.46L300.6 273.99L298.33 274.43L296.03 274.77L293.7 275.02L291.34 275.17L288.96 275.22L288.96 154.44L291.34 154.49L293.7 154.64L293.7 154.64L296.03 154.89Z" id="b54VzBFUV3"></path></defs><g><g><use xlink:href="#c3y8031pJd" opacity="1" fill="#020000" fill-opacity="1"></use><g><use xlink:href="#c3y8031pJd" opacity="1" fill-opacity="0" stroke="#030000" stroke-width="3" stroke-opacity="1"></use></g></g><g><use xlink:href="#b54VzBFUV3" opacity="1" fill="#ffffff" fill-opacity="1"></use><g><use xlink:href="#b54VzBFUV3" opacity="1" fill-opacity="0" stroke="#030000" stroke-width="3" stroke-opacity="1"></use></g></g></g></svg>